<?xml version="1.0" encoding="utf-8"?>
<!-- Generator: Adobe Illustrator 26.5.0, SVG Export Plug-In . SVG Version: 6.00 Build 0)  -->
<svg version="1.1" id="Layer_1" xmlns="http://www.w3.org/2000/svg" xmlns:xlink="http://www.w3.org/1999/xlink" x="0px" y="0px"
	 viewBox="0 0 500 500" style="enable-background:new 0 0 500 500;" xml:space="preserve">
<style type="text/css">
	.st0{display:none;fill:#3A65B0;}
	.st1{fill:#7C7FBD;}
</style>
<circle class="st0" cx="251.4" cy="250" r="245"/>
<path class="st1" d="M367.81,130.09c-0.24,0-0.48,0.01-0.72,0.02c-0.24-0.01-0.48-0.02-0.72-0.02H247.66c-0.01,0-0.03,0-0.04,0
	l-0.04,0c-13.48-0.34-24.52,10.41-24.52,23.9v94.5h-72.29v-70.48h24.43c12.54,0,24.05-10.19,24.95-22.7
	c1.03-14.36-10.31-26.33-24.45-26.33h-42.49c-2.62,0-5.15,0.42-7.52,1.18c-9.81,1.84-17.23,10.43-17.23,20.78v125.44
	c0,11.68,9.47,21.15,21.15,21.15h0c0.51,0,1.01-0.04,1.51-0.08c0.61,0.05,1.23,0.08,1.85,0.08h90.08v87.76
	c0,12.54,10.19,24.05,22.7,24.95c14.36,1.03,26.33-10.31,26.33-24.45V179.13h71.2v69.81H317.6c-13.54,0-24.52,10.98-24.52,24.52v0
	c0,13.54,10.98,24.52,24.52,24.52h48.77c1,0,1.98-0.07,2.95-0.18c12.84-0.78,23.01-11.43,23.01-24.47V154.61
	C392.33,141.07,381.35,130.09,367.81,130.09z"/>
</svg>
