<?xml version="1.0" standalone="no"?>
<!DOCTYPE svg PUBLIC "-//W3C//DTD SVG 20010904//EN"
 "http://www.w3.org/TR/2001/REC-SVG-20010904/DTD/svg10.dtd">
<svg version="1.0" xmlns="http://www.w3.org/2000/svg"
 width="169.000000pt" height="169.000000pt" viewBox="0 0 169.000000 169.000000"
 preserveAspectRatio="xMidYMid meet">
<metadata>
Created by potrace 1.14, written by Peter Selinger 2001-2017
</metadata>
<g transform="translate(0.000000,169.000000) scale(0.100000,-0.100000)"
fill="#000000" stroke="none">
<path d="M457 1260 c-110 -8 -109 -3 -105 -296 3 -218 5 -245 21 -261 15 -16
41 -18 196 -21 l179 -3 -1 -164 c-1 -158 0 -166 22 -189 28 -30 61 -39 95 -26
49 18 51 29 51 420 l1 365 122 2 122 1 0 -118 0 -118 -65 -4 c-52 -3 -68 -8
-85 -27 -29 -35 -26 -86 6 -116 25 -23 34 -25 135 -25 118 0 151 9 168 47 7
15 11 104 11 243 0 233 -5 260 -47 279 -30 14 -451 15 -487 1 -44 -16 -50 -42
-50 -225 l-1 -170 -122 -3 -122 -3 -3 117 c-2 64 0 118 4 120 4 3 33 6 64 8
82 5 120 53 93 117 -19 48 -65 59 -202 49z"/>
</g>
</svg>
